<svg id="Layer_1" data-name="Layer 1" xmlns="http://www.w3.org/2000/svg" xmlns:xlink="http://www.w3.org/1999/xlink" viewBox="0 0 1351.73 911.32"><defs><style>.cls-1{fill:none;}.cls-2{clip-path:url(#clip-path);}.cls-3{fill:#231f20;}</style><clipPath id="clip-path"><rect class="cls-1" width="1351.73" height="911.32"/></clipPath></defs><g class="cls-2"><path class="cls-3" d="M244.14,319.18c40.79,19.35,50.31,55.54,51.88,94,1.72,42.12,2.5,84.65-1.4,126.53C288.8,602.05,256.2,633,193.09,635.61c-63.88,2.62-127.95.58-193.09.58V2.64a53.06,53.06,0,0,1,7.32-1c58.36,0,116.73-.32,175.08.35,13.79.16,27.8,2.52,41.24,5.8C259.94,16.7,282.59,40,291.33,76.3c2.74,11.38,5.08,23.15,5.28,34.78.63,37,1,74.06-.11,111.05-1.26,40.05-12.59,75.73-52.36,97.05m-122-62.4c12.91,0,24.58.58,36.17-.18,10.13-.66,15.87-7.42,16-17.34.34-33.44.77-66.92-.47-100.32-.22-5.89-7.58-15.34-13-16.43-12.35-2.47-25.53-.78-38.68-.78ZM122.44,517c11.79,0,22.58.11,33.36,0,12.34-.15,18.41-7.16,18.51-18.89.27-32.6.2-65.2,0-97.79-.06-10.57-5.57-17.74-16.25-18.55-11.56-.88-23.24-.2-35.64-.2Z"/><path class="cls-3" d="M648.68,636h-123v-16c0-69.69-1.1-139.41.59-209.05.59-24.3-5.6-42.13-27.15-54.87-15.38,12.21-27.56,24.62-26.83,49.22,2.1,71.37.75,142.84.75,214.27v16.23H350.13V622.31q0-249.57.14-499.13a195.75,195.75,0,0,1,3.46-36.32C363.9,33.93,389.79,9.35,450.31,3.5c37-3.58,75.05-2.58,112,2,52.85,6.48,80.34,40.24,85.19,96.39.78,9.1,1.18,18.26,1.18,27.39q.11,245.66,0,491.3ZM473,257h52.52c0-40.21.17-79.66-.12-119.09-.07-9.68-6.35-14.79-15.66-16.09a59.73,59.73,0,0,0-7.81-.15C476.82,121.5,473,125.2,473,149.87q0,31.94,0,63.86V257"/><path class="cls-3" d="M1351.6,319.07c0,63.17.43,126.35-.27,189.51a262.92,262.92,0,0,1-6,54.27c-8.34,37.08-32.4,60.5-69.42,68.12-46.91,9.64-94.62,9.48-141.5,1-47.15-8.54-71.65-37.18-78.31-85.62a310.32,310.32,0,0,1-2.86-41.66q-.32-185.6.11-371.18a284.64,284.64,0,0,1,5.43-54.41c7.86-39.39,32.32-64.23,71.74-72a372.85,372.85,0,0,1,139-.93c52.58,9.49,79.71,42.8,81.06,99.91,1.67,71,.4,142,.4,213h.66m-122.73,1q0-87.49,0-175c0-19.33-4.93-23.45-27.07-23.42-20.2,0-25.63,4.94-25.64,23.72q0,173.7,0,347.38c0,19.05,5.34,24,25.31,24.08,22.82.06,27.38-3.91,27.4-24.39q.09-86.19,0-172.38"/><path class="cls-3" d="M1000.48,203.61H877.58c0-19.78-.2-38.82.08-57.86.14-9.76-1-20.81-11.35-22.25-11.76-1.64-24.39,1-36.24,3.67-2.55.56-4.77,9-4.78,13.74q-.39,178.36-.14,356.72c0,13.15,6,18.72,19.28,19.16,5.22.17,10.46.2,15.67-.06,10.26-.52,17-6.39,17.12-16.23.55-39.52.23-79.05.23-119.84H851.18V257.72H999.9c.21,4.61.57,8.83.57,13,0,80.14.45,160.29-.31,240.42-.17,18.08-3,36.47-7.19,54.1-8.45,35.54-32.1,58.05-67.33,65.31-49.45,10.17-99.74,10.51-149.09,0-44.54-9.49-68.86-42.52-73.44-93.16-.79-8.67-1.41-17.39-1.41-26.08q0-196,.47-392c.05-14.21,2.52-28.63,5.57-42.57C716,39,739.86,15,777.4,7.44c49.06-9.8,98.9-10.1,147.86.18,42.82,9,66.43,38.63,72.54,85.09a254.43,254.43,0,0,1,2.56,29.91c.35,26.53.12,53.08.12,81"/><path class="cls-3" d="M146.74,909.39H125.68V751.58c11.61-3.54,20.41-2.77,28.11,9.51,21.47,34.28,44.31,67.71,66.64,101.45,2.08,3.15,4.38,6.14,8.43,11.8V751h20.66V908.65c-13,4.48-21.37.8-29-11.28-23.13-36.79-47.58-72.74-73.81-112.5Z"/><path class="cls-3" d="M1066.13,911.32c-46-.07-80.35-35-80.16-81.46s34.6-81.14,80.64-81,80.21,34.93,80.09,81.52-34.38,81-80.57,81m58.14-80.82c.14-38-23-63.19-57.86-63.2-34.44,0-57.89,24.9-58.11,61.72-.22,38,22.69,63.57,57.29,63.92,35,.35,58.53-24.72,58.68-62.44"/><path class="cls-3" d="M1336.51,909.21c-15.13,2-26.91,3.27-33.45-13.11-4.62-11.58-13.42-21.44-18.49-32.89-6.85-15.47-16.72-22.5-34.89-15.88v61.75h-20.85V752.36c23.34,0,46.45-1.86,69.12.54,21.19,2.25,34.74,19.38,36.9,40,2.13,20.32-8.5,38.4-27.79,47.25-2.71,1.25-5.46,2.39-9.3,4.06l38.75,65M1249,827.37c13.87,0,25.6.11,37.33-.09,2.53,0,5.11-1,7.56-1.88,13.31-4.57,19.25-14.59,18.38-30.81-.72-13.49-7.41-22.72-20.68-24.63-13.56-1.94-27.43-1.68-41.76-2.42-.37,5.38-.78,8.75-.79,12.12-.07,15.56,0,31.13,0,47.71"/><path class="cls-3" d="M711,909.33H690.35V749.46c24,1.14,48,.46,71.41,3.93,21,3.11,33.61,20.27,34.87,40.17,1.36,21.72-8.46,38-28.25,46.81-2.37,1-4.79,2-8.74,3.59,12.78,21.48,25.27,42.5,37.85,63.66-19.06,6.12-22.65,4.81-31.89-11.09Q755.46,879,745.24,861.59c-10.59-18.17-10.59-18.17-34.2-14.92Zm-.2-142v61.39c16.22-1.23,31.08-.89,45.26-3.85,13.64-2.85,19.2-14.48,18.08-30.66-.95-13.67-7.49-22.44-21-24.38-13.21-1.9-26.73-1.68-42.38-2.5"/><polygon class="cls-3" points="595.84 819.93 595.84 837.59 539.21 837.59 539.21 891.98 602.24 891.98 602.24 909.22 517.84 909.22 517.84 751.11 602.44 751.11 602.44 767.56 539.24 767.56 539.24 819.93 595.84 819.93"/><polygon class="cls-3" points="438 751.46 438 767.15 395.12 767.15 395.12 909.32 373.51 909.32 373.51 767.91 330.67 767.91 330.67 751.46 438 751.46"/><rect class="cls-3" x="13.67" y="751.51" width="20.38" height="157.79"/><rect class="cls-3" x="883.57" y="751.14" width="19.36" height="158.1"/></g></svg>